<?xml version="1.0" standalone="no"?>
<svg version="1.1" preserveAspectRatio="xMidYMid meet" viewBox="-3.496000000000002 0 76 76" class="ng-element interactive" data-id="0a58e5fd5b73480d97bbe10335c79453" style="fill: rgb(60, 172, 113); width: 42px; height: 42px; filter: none;" xmlns="http://www.w3.org/2000/svg"><g><path xmlns:default="http://www.w3.org/2000/svg" id="Attach_1_" d="M18.4,75.8L18.4,75.8c-4.9,0-9.5-1.9-13-5.4C1.9,67,0,62.4,0,57.4c0-4.9,1.9-9.5,5.4-13L46.3,3.5  C48.8,1,52.1-0.2,55.6,0c3.2,0.3,6.3,1.8,8.8,4.3c5.2,5.2,5.6,13.3,0.9,18.1L30.9,56.8c-2.9,2.9-7.4,2.6-10.7-0.7  c-3.1-3.1-3.4-7.9-0.7-10.7l28.1-28.1l3.7,3.7L23.3,49.1c-0.6,0.6-0.4,2.1,0.7,3.2c0.3,0.3,2,1.9,3.2,0.7l34.4-34.4  c2.7-2.7,2.3-7.4-0.9-10.6C59,6.5,57,5.5,55.1,5.3c-1.9-0.2-3.6,0.5-5.1,1.9L9.1,48.2c-2.5,2.5-3.8,5.8-3.8,9.3  c0,3.5,1.4,6.8,3.8,9.3c2.5,2.5,5.8,3.8,9.3,3.8l0,0c3.5,0,6.8-1.4,9.3-3.8l35.4-35.4l3.7,3.7L31.4,70.5  C27.9,73.9,23.3,75.8,18.4,75.8z" style="fill: rgb(60, 172, 113);"/></g></svg>