<?xml version="1.0" standalone="no"?>
<svg version="1.1" preserveAspectRatio="xMidYMid meet" viewBox="0 0 24 24" class="ng-element interactive" data-id="6d500ed6af6e4503b96f87735df4aa25" style="mix-blend-mode: normal; fill: rgb(255, 255, 255); width: 57px; height: 57px; filter: none;" xmlns="http://www.w3.org/2000/svg"><g><path xmlns:default="http://www.w3.org/2000/svg" id="arrow-circle-left" d="M17.33,12.67c-0.01,0.37-0.3,0.66-0.67,0.67h-5.22l2,2c0.25,0.26,0.25,0.68,0,0.94l-0.95,0.95  c-0.26,0.25-0.68,0.25-0.94,0L6.8,12.47c-0.25-0.26-0.25-0.68,0-0.94l4.72-4.72c0.26-0.25,0.68-0.25,0.94,0l0.95,0.95  c0.26,0.25,0.27,0.66,0.02,0.92c-0.01,0.01-0.01,0.01-0.02,0.02l-2,2h5.23c0.37,0.01,0.66,0.3,0.67,0.67v1.33l0,0L17.33,12.67z   M18.92,8c-0.7-1.21-1.71-2.22-2.92-2.92C14.79,4.37,13.41,3.99,12,4c-1.41-0.01-2.79,0.37-4,1.08C6.79,5.78,5.78,6.79,5.08,8  C4.37,9.21,3.99,10.59,4,12c-0.01,1.41,0.36,2.79,1.07,4c0.7,1.21,1.71,2.22,2.93,2.92c1.21,0.71,2.59,1.09,4,1.08  c1.41,0.01,2.79-0.36,4-1.07c1.21-0.7,2.22-1.71,2.92-2.93c0.71-1.21,1.09-2.59,1.08-4C20.01,10.59,19.63,9.21,18.92,8z" style="fill: rgb(255, 255, 255);"/></g></svg>