<?xml version="1.0" standalone="no"?>
<svg version="1.1" preserveAspectRatio="xMidYMid meet" viewBox="-0.4939999999999998 0 76 76" class="ng-element interactive" data-id="b77bd3b66005476290c3ae00c4a1fab3" style="fill: rgb(255, 255, 255); width: 20px; height: 20px; filter: none;" xmlns="http://www.w3.org/2000/svg"><g><g xmlns:default="http://www.w3.org/2000/svg" id="Edit_1_">
	<path d="M36.3,20.8L12.8,44.5c0,0,2,1.9,7.2,1.7c1.1,2.4,2.2,5.2,8.3,8c-0.2,5,2.1,7.8,2.1,7.8l23.5-23.7   c-0.3-3.2-2.7-7.3-6.5-11.1C42.1,22,37.7,21,36.3,20.8z" style="fill: rgb(255, 255, 255);"/>
	<path d="M70.3,3.8c-6.9-5.7-11.7-4-14.1-1.7c-0.8,0.8-3.5,3-5.5,4.5c2.2,0.1,6.6,1.1,11.5,5.9c4.8,4.8,5.7,8.9,5.8,11.1   c1.6-2.1,4.2-5.4,4.6-5.8C75.2,15.2,77.2,9.5,70.3,3.8z" style="fill: rgb(255, 255, 255);"/>
	<path d="M16.6,49.1c-4.7,0-5.7-1-5.7-1L0,75.1l27-11.2c0,0-2.1-4.2-2.1-6.5C23,56.8,18.1,53.8,16.6,49.1z" style="fill: rgb(255, 255, 255);"/>
	<path d="M47.7,9.3L45,11.9c0,0,5.1,0.8,11.2,6.8c3.8,3.8,5.9,7.8,6.2,10.6l2.6-2.6c0,0,0.9-4.6-5.7-11.2   C52.8,9.1,47.7,9.3,47.7,9.3z" style="fill: rgb(255, 255, 255);"/>
	<path d="M42.6,15.2l-2.6,2.5c0,0,4.9,0.8,10.7,6.6c3.6,3.6,5.6,7.4,6,10.1l2.4-2.4c0,0,0.9-4.4-5.4-10.7   C47.5,15.1,42.6,15.2,42.6,15.2z" style="fill: rgb(255, 255, 255);"/>
</g></g></svg>