<?xml version="1.0" standalone="no"?>
<svg version="1.1" preserveAspectRatio="xMidYMid meet" viewBox="0 0 256 256" class="ng-element interactive" data-id="f1f476143a7e446d91d57fc66f92c6a3" style="fill: rgb(255, 255, 255); width: 19px; height: 15px; filter: none;" xmlns="http://www.w3.org/2000/svg"><path fill="#343434" d="M157.783,47.23c-5.766,0-9.333,0.867-10.699,2.667c-1.366,1.799-2.033,5.5-2.033,11.066v14.366h36.414 c1.533,0,3.101,0.766,4.733,2.3c1.1,1.066,1.633,2.667,1.633,4.733l-2.766,33.464c0,1.767-0.601,3.133-1.801,4.2 c-1.199,1.033-2.666,1.533-4.433,1.533h-33.781v128.108c0,1.733-0.634,3.267-1.866,4.467c-1.267,1.267-2.767,1.866-4.533,1.866 H96.521c-1.733,0-3.267-0.6-4.5-1.866c-1.233-1.2-1.867-2.733-1.867-4.467V121.559H69.723c-1.734,0-3.267-0.6-4.5-1.866 c-1.233-1.267-1.867-2.767-1.867-4.5V82.028c0-1.733,0.633-3.3,1.867-4.667c1.233-1.367,2.766-2.033,4.5-2.033h20.432V58.663 C90.154,19.666,110.086,0.1,149.95,0c13.383,0,26.016,1.7,37.881,5.066c3.6,1.1,5.2,3.433,4.733,7.033l-4.399,32.498 c-0.434,1.767-1.301,3.166-2.601,4.267c-1.732,1.1-3.466,1.399-5.065,0.966c-3.834-0.867-7.767-1.533-11.866-1.967 C164.566,47.431,160.949,47.23,157.783,47.23z" style="fill: rgb(255, 255, 255);"/></svg>