<?xml version="1.0" standalone="no"?>
<svg version="1.1" preserveAspectRatio="xMidYMid meet" viewBox="0 0 24 24" class="ng-element" data-id="89839758c7444880a698fdb7175938c9" style="fill: rgb(255, 255, 255); width: 58px; height: 58px; pointer-events: all; filter: none;" xmlns="http://www.w3.org/2000/svg"><g><defs> </defs> <rect display="none" fill="#FFA400" width="24" height="24" style="fill: rgb(255, 255, 255);"/> <rect id="_x3C_Slice_x3E__81_" display="none" fill="none" width="24" height="24" style="fill: rgb(255, 255, 255);"/> <path fill-rule="evenodd" clip-rule="evenodd" d="M23,0c-1,0-2,0-2.5,0.5l-4,4.5H1L0,6.5L11,10l-3,4H3.5L2,15.5l3,1V18 c0.034,0.537,0.5,1,1,1h1.5l1,3l1.5-1.5V16l4-3l3.5,11l1.5-1V7.5l4.5-4C24,3,24,2,24,1C24,0.5,23.5,0,23,0z" style="fill: rgb(255, 255, 255);"/> </g></svg>